<svg height="512pt" viewBox="-38 0 512 512" width="512pt" xmlns="http://www.w3.org/2000/svg"><path d="m218 512c-.632812 0-1.265625-.058594-1.890625-.179688-60.667969-11.667968-115.75-44.324218-155.097656-91.957031-39.34375-47.632812-61.011719-107.890625-61.011719-169.671875v-175.019531c0-4.371094 2.839844-8.238281 7.011719-9.542969l207.683593-65.066406c1.050782-.367188 2.203126-.5390625 3.304688-.5625h.011719c1.132812 0 2.246093.195312 3.296875.5625l207.679687 65.066406c4.171875 1.308594 7.011719 5.171875 7.011719 9.542969v175.019531c0 61.78125-21.667969 122.039063-61.015625 169.671875-39.34375 47.632813-94.425781 80.289063-155.09375 91.957031-.625.121094-1.257813.179688-1.890625.179688zm-198-429.484375v167.675781c0 117.304688 83.152344 218.609375 198 241.617188 114.847656-23.007813 197.996094-124.3125 197.996094-241.617188v-167.675781l-197.996094-62.03125zm0 0"/><path d="m218 454.675781c-.8125 0-1.625-.097656-2.414062-.292969-45.148438-11.234374-85.886719-37.671874-114.71875-74.441406-28.933594-36.90625-44.867188-82.984375-44.867188-129.75v-133.882812c0-4.371094 2.839844-8.234375 7.007812-9.539063l152-47.621093c1.945313-.609376 4.035157-.609376 5.980469 0l152 47.621093c4.167969 1.304688 7.007813 5.167969 7.007813 9.539063v133.882812c0 34.183594-8.46875 68.210938-24.488282 98.402344-2.589843 4.878906-8.640624 6.730469-13.519531 4.144531-4.878906-2.589843-6.734375-8.640625-4.148437-13.519531 14.496094-27.3125 22.15625-58.097656 22.15625-89.027344v-126.535156l-142-44.488281-141.996094 44.488281v126.535156c0 86.808594 58.265625 162.183594 141.996094 184.164063 23.261718-6.105469 44.875-16.4375 64.28125-30.730469 4.445312-3.273438 10.707031-2.324219 13.980468 2.121094 3.277344 4.445312 2.328126 10.707031-2.121093 13.980468-22.191407 16.347657-46.996094 28.003907-73.726563 34.65625-.789062.195313-1.601562.292969-2.410156.292969zm0 0"/><path d="m199.835938 331.257812c-2.5625 0-5.117188-.976562-7.070313-2.929687l-66.964844-66.964844c-3.90625-3.902343-3.90625-10.234375 0-14.140625l33.941407-33.941406c1.875-1.875 4.417968-2.929688 7.070312-2.929688s5.195312 1.054688 7.070312 2.929688l25.953126 25.953125 62.277343-62.28125c3.90625-3.902344 10.238281-3.90625 14.144531 0l33.941407 33.941406c1.875 1.875 2.929687 4.417969 2.929687 7.070313s-1.054687 5.195312-2.929687 7.070312l-103.292969 103.292969c-1.953125 1.953125-4.511719 2.929687-7.070312 2.929687zm-52.824219-76.964843 52.824219 52.820312 89.148437-89.148437-19.800781-19.796875-62.277344 62.28125c-1.875 1.875-4.417969 2.925781-7.070312 2.925781-2.652344 0-5.195313-1.050781-7.070313-2.925781l-25.953125-25.953125zm0 0"/><path d="m321.21875 391.101562c-2.628906 0-5.210938-1.0625-7.070312-2.929687-1.859376-1.859375-2.929688-4.441406-2.929688-7.070313 0-2.628906 1.070312-5.210937 2.929688-7.070312 1.859374-1.859375 4.441406-2.929688 7.070312-2.929688s5.210938 1.070313 7.070312 2.929688c1.859376 1.859375 2.929688 4.441406 2.929688 7.070312 0 2.628907-1.070312 5.210938-2.929688 7.070313-1.859374 1.867187-4.441406 2.929687-7.070312 2.929687zm0 0"/></svg>